<svg width="960" height="420" viewBox="0 0 960 420" fill="none" xmlns="http://www.w3.org/2000/svg">
  <rect width="960" height="420" rx="28" fill="#F4F4F5"/>
  <rect x="28" y="28" width="904" height="364" rx="20" fill="#FFFFFF" stroke="#E4E4E7" stroke-width="2"/>

  <g transform="translate(90 78)">
    <rect width="180" height="240" rx="16" transform="rotate(-9 90 120)" fill="#18181B"/>
    <rect x="18" y="18" width="144" height="204" rx="12" transform="rotate(-9 90 120)" fill="#FAFAFA"/>
    <text x="95" y="130" text-anchor="middle" font-family="Inter, Arial, sans-serif" font-size="56" font-weight="700" fill="#18181B" transform="rotate(-9 95 130)">?</text>
  </g>

  <g transform="translate(230 110)">
    <rect width="180" height="240" rx="16" transform="rotate(8 90 120)" fill="#27272A"/>
    <rect x="18" y="18" width="144" height="204" rx="12" transform="rotate(8 90 120)" fill="#FFFFFF"/>
    <text x="95" y="130" text-anchor="middle" font-family="Inter, Arial, sans-serif" font-size="56" font-weight="700" fill="#27272A" transform="rotate(8 95 130)">8</text>
  </g>

  <text x="520" y="160" font-family="Inter, Arial, sans-serif" font-size="48" font-weight="800" fill="#18181B">
    Planning Poker
  </text>
  <text x="520" y="212" font-family="Inter, Arial, sans-serif" font-size="32" font-weight="700" fill="#52525B">
    Under Development 🚧
  </text>
  <text x="520" y="258" font-family="Inter, Arial, sans-serif" font-size="24" font-weight="500" fill="#71717A">
    Shuffling cards, debates, and chaos...
  </text>
  <text x="520" y="292" font-family="Inter, Arial, sans-serif" font-size="24" font-weight="500" fill="#71717A">
    coming soon to a sprint near you.
  </text>

  <rect x="520" y="326" width="214" height="40" rx="20" fill="#18181B"/>
  <text x="627" y="352" text-anchor="middle" font-family="Inter, Arial, sans-serif" font-size="18" font-weight="700" fill="#FAFAFA">
    Loading...
  </text>
</svg>
